<svg width="97px" height="17px" viewBox="0 0 97 17" version="1.1" xmlns="http://www.w3.org/2000/svg" xmlns:xlink="http://www.w3.org/1999/xlink">
    <g id="Page-1" stroke="none" stroke-width="1" fill="none" fill-rule="evenodd">
        <g id="Gramex-Logos" transform="translate(-386.000000, -96.000000)" fill-rule="nonzero">
            <g id="gramex-logo-color-white" transform="translate(386.000000, 96.000000)">
                <path d="M13.908198,0.0671303 L14.098148,0.261523 L14.098148,3.1540474 L13.908198,3.3483656 L4.6137952,3.3483656 L4.3754989,3.3560289 C3.948645,3.3851402 3.6475526,3.4971464 3.4655883,3.6832954 C3.275549,3.8777052 3.1647469,4.2051367 3.1424704,4.670657 L3.1382845,4.8517099 L3.1381289,11.6746581 L3.1470768,11.905097 C3.175711,12.2547787 3.2738379,12.5389003 3.4398168,12.7617575 C3.6040091,12.9822159 3.8003256,13.1042845 4.0384079,13.134662 L4.1609742,13.1422409 L10.451141,13.1421664 L10.681621,13.1313743 C11.028593,13.0969657 11.30728,12.9792084 11.523946,12.7786692 C11.747433,12.5718165 11.874011,12.2864763 11.902163,11.9130082 L11.908198,11.7475267 L11.908,10.1011303 L9.49535,8.3098141 C9.384493,8.2275067 9.36135,8.0709164 9.443657,7.9600601 C9.49082,7.8965392 9.565265,7.8590909 9.64438,7.8590909 L14.61005,7.8593121 L14.8,8.0536303 L14.8,11.8433688 L14.793046,12.2164288 C14.774338,12.7044521 14.717834,13.1187129 14.622496,13.4600682 C14.502059,13.8912933 14.285039,14.3123495 13.971224,14.7250745 C13.55573,15.2563865 13.10963,15.628377 12.631898,15.8378278 C12.217599,16.019468 11.68831,16.1202146 11.043037,16.1425632 L10.759388,16.1473485 L4.5268223,16.1473485 L4.1609742,16.1369011 C3.1841624,16.0802257 2.3862612,15.7940861 1.7788212,15.2805601 C1.2159454,14.8411181 0.8264491,14.3737012 0.6137672,13.8763912 C0.4266052,13.438754 0.3242608,12.8657481 0.3038283,12.1559107 L0.3,11.8833048 L0.3,4.3710005 L0.306166,4.0566767 C0.4073838,1.4951437 1.7626715,0.1500131 4.3109604,0.0708422 L4.5533557,0.0671303 L13.908198,0.0671303 Z M22.829084,0.3407303 L23.080337,0.5919837 L23.080337,3.1527585 L22.829084,3.4040119 L21.602692,3.4037353 L21.390725,3.4133622 C20.739576,3.4772932 20.435141,3.8658631 20.435141,4.6723391 L20.435141,4.6723391 L20.435141,15.8159303 L20.183888,16.0671837 L17.651253,16.0671837 L17.4,15.8159303 L17.400068,4.6102213 L17.410711,4.155503 C17.468854,2.9441904 17.764494,2.03559 18.323622,1.4217387 C18.651636,1.1142262 19.107942,0.8584943 19.691601,0.6507512 C20.271348,0.4444004 20.839065,0.3407303 21.393924,0.3407303 L21.393924,0.3407303 L22.829084,0.3407303 Z M34.949847,0.3407303 L35.285936,0.34553 C35.837244,0.3618248 36.264755,0.4195595 36.573475,0.5224661 C36.953002,0.6489752 37.328037,0.9058485 37.701161,1.289057 C38.069767,1.6676254 38.35904,2.101535 38.568155,2.5894686 C38.673262,2.8347185 38.752212,3.0841787 38.805175,3.3414263 L38.865153,3.7335855 L38.883944,4.1095314 L38.883668,11.9443405 L38.865224,12.3309975 C38.777666,13.2503617 38.383504,14.0781013 37.689017,14.8073125 C37.069915,15.4573701 36.371214,15.8584209 35.590297,16.0050733 L35.250578,16.0523332 L34.91816,16.0671837 L27.813247,16.0669202 L27.468012,16.050822 C26.52692,15.9634632 25.682282,15.5272654 24.941529,14.7512379 C24.294822,14.0737359 23.896941,13.3126896 23.751699,12.4660189 L23.704932,12.0979117 L23.690125,11.7355749 L23.692787,10.3647752 L23.705372,9.8646717 C23.773702,8.5336734 24.119251,7.4795052 24.748287,6.7087155 C25.314408,6.0150177 26.07419,5.5946302 27.022981,5.4491642 L27.387629,5.4075045 L27.799194,5.3922148 L35.821236,5.3922148 L35.821236,4.2109159 L35.810603,4.0437149 C35.761296,3.696737 35.518412,3.4867836 35.031442,3.4095533 L34.807649,3.384568 L34.552335,3.3758715 L26.159114,3.3806712 L25.907861,3.1294178 L25.907861,0.5967835 L26.159114,0.34553 L34.949847,0.3407303 Z M47.300857,0.3409506 L47.625798,0.3547701 C47.964,0.382644 48.317106,0.4519711 48.685134,0.5623795 C49.179197,0.7105982 49.519222,0.8506084 49.716817,0.993316 C49.833724,1.0777492 49.963539,1.2036018 50.108485,1.3719311 L50.108485,1.3719311 L50.228999,1.5186063 L50.607212,1.0898758 L50.852552,0.9179766 C51.466307,0.5316197 52.240773,0.3407303 53.171679,0.3407303 L53.171679,0.3407303 L55.458217,0.3407303 L55.805959,0.3508686 C58.04699,0.4821345 59.191711,1.8901997 59.191711,4.4753564 L59.191711,4.4753564 L59.191711,15.8159303 L58.940457,16.0671837 L56.379683,16.0671837 L56.128429,15.8159303 L56.128685,4.6555396 L56.119186,4.4386036 C56.056021,3.7700082 55.675639,3.4602926 54.888242,3.4602926 L54.888242,3.4602926 L52.904405,3.459895 L52.721898,3.4697071 C52.173267,3.5343185 51.903352,3.9475568 51.903352,4.813041 L51.903352,4.813041 L51.903352,15.8159303 L51.652098,16.0671837 L49.091324,16.0671837 L48.84007,15.8159303 L48.840284,4.8233912 L48.830251,4.5739314 C48.762763,3.7910769 48.36052,3.4321522 47.543603,3.4321522 L47.543603,3.4321522 L45.526911,3.4319758 L45.287133,3.440753 C44.945802,3.4677002 44.709462,3.5563277 44.569543,3.6962464 C44.399311,3.8664782 44.305449,4.1793529 44.305449,4.6441987 L44.305449,4.6441987 L44.305449,15.8159303 L44.054195,16.0671837 L41.521561,16.0671837 L41.270308,15.8159303 L41.270308,4.468416 L41.281828,4.0588205 C41.344134,2.9606897 41.66,2.0841613 42.234264,1.4381138 C42.885285,0.7057156 43.807886,0.3407303 44.982828,0.3407303 L44.982828,0.3407303 L47.300857,0.3409506 Z M70.517759,0.3407303 L70.940455,0.3539043 C72.074729,0.4251012 72.983031,0.7858525 73.654135,1.4390602 C74.242349,2.0115883 74.600718,2.7614579 74.730579,3.6859815 L74.772247,4.0928912 L74.785407,4.5034968 L74.785407,6.3044812 L74.640016,6.5323439 L64.849842,11.078296 L64.849742,11.3935338 L64.927764,12.008427 L65.019099,12.3726869 C65.024947,12.4010308 65.029316,12.4252992 65.032239,12.4457624 C65.035132,12.4660131 65.06319,12.5252453 65.132481,12.6316083 C65.22894,12.8148795 65.453633,12.9418393 65.819909,12.9984198 L66.056771,13.0238101 L66.317162,13.0320425 L73.674855,13.0320425 L73.926109,13.2832959 L73.926109,15.8159303 L73.674855,16.0671837 L66.196294,16.0671837 L65.778028,16.0530607 C64.653327,15.976909 63.729662,15.5920485 63.018179,14.8983529 C62.394762,14.2905211 62.013592,13.5246651 61.875204,12.6027368 L61.830761,12.1980749 L61.816711,11.7918557 L61.816711,4.9761962 L61.825089,4.6120678 C61.944517,2.0307068 63.348296,0.5992592 65.970237,0.3725826 L66.353079,0.3484019 L66.739268,0.3407303 L70.517759,0.3407303 Z M28.5135,8.3989836 L28.234166,8.4107357 C27.812468,8.4482199 27.468636,8.5765839 27.19636,8.7944043 C26.986609,8.9622054 26.849118,9.1643267 26.78105,9.3982426 L26.742972,9.5796016 L26.727849,9.8082448 L26.724497,11.7722099 L26.733106,11.889581 C26.750525,12.0071564 26.796608,12.1523183 26.872453,12.3229706 C26.971151,12.5450415 27.091346,12.7173202 27.200828,12.8186835 C27.349218,12.9140769 27.623264,12.9818562 28.013514,13.0128226 L28.261534,13.0269113 L28.556401,13.0320425 L33.989528,13.0320425 C34.700244,13.0320425 35.14171,12.9627928 35.26773,12.8619769 C35.424674,12.7364222 35.556395,12.5647848 35.662624,12.344157 C35.71677,12.2316981 35.756746,12.1284308 35.782361,12.0400079 L35.809988,11.9192136 L35.820662,11.7918557 L35.823732,9.8238676 L35.810072,9.5957592 C35.767448,9.2656972 35.62167,9.0019086 35.366387,8.7924457 C35.102401,8.5758411 34.748863,8.4471677 34.30061,8.4102934 L34.020251,8.3992156 L28.5135,8.3989836 Z M70.425658,3.3758715 L66.3004,3.3756137 L66.062879,3.3860811 C65.386724,3.4499402 65.006629,3.8104701 64.890619,4.5159538 L64.861686,4.7639574 L64.851852,5.038164 L64.849842,7.7115003 L71.722125,4.5115369 L71.713979,4.2082686 C71.688918,3.9031757 71.608327,3.7029495 71.484897,3.5956191 C71.3526,3.4805781 71.083753,3.4046696 70.682364,3.3825623 L70.425658,3.3758715 Z" id="gramex-logo" fill="#ddd"></path>
                <path d="M80.873203,0.2614485 L85.366788,6.8941672 L85.458811,7.0712471 C85.523767,7.2070645 85.58178,7.3520964 85.633187,7.5063183 C85.721221,7.7704218 85.765997,8.0390784 85.765997,8.3095049 C85.765997,8.5477169 85.718502,8.7931112 85.628864,9.0470841 C85.574682,9.2006007 85.508746,9.3505157 85.425171,9.5059053 L85.285844,9.7442303 L80.836164,16.1385853 L76.25,16.1385853 L81.894306,8.2095838 L76.399617,0.2614485 L80.873203,0.2614485 Z" id="gramex-logo-path" fill="#0091FF"></path>
                <path d="M96.540261,0.2614485 L91.046062,8.2065467 L96.726402,16.1385853 L92.097504,16.1385853 L87.584759,9.6973854 L87.451695,9.4703623 C87.262354,9.1058819 87.165997,8.715636 87.165997,8.3095049 C87.165997,7.8874515 87.254717,7.4819477 87.449062,7.0687114 L87.57848,6.8196474 L92.027509,0.2614485 L96.540261,0.2614485 Z" id="gramex-logo-path" fill="#02E96D"></path>
            </g>
        </g>
    </g>
</svg>